<svg width="74" height="58" viewBox="0 0 74 58" fill="none" xmlns="http://www.w3.org/2000/svg">
<path d="M52.5802 51.5367C52.4242 51.8069 52.9425 52.3971 54.1352 53.3074C55.307 54.2057 56.5269 55.0208 57.7948 55.7528C59.0626 56.4848 59.9152 56.8801 60.3526 56.9386C60.7899 56.9971 61.0986 56.8705 61.2786 56.5587L72.3126 37.4472C72.6246 36.9069 72.3186 36.0928 71.3947 35.0051C70.4499 33.9054 69.2086 32.9116 67.6705 32.0236C66.4026 31.2916 65.4376 31.067 64.7755 31.3498C64.3013 31.5472 63.9802 31.7913 63.8122 32.0823L60.8422 37.2265L60.5928 37.0825C60.6528 36.9786 60.839 35.936 61.1515 33.9548C61.7308 30.2155 61.7502 28.1898 61.2098 27.8778C60.1914 27.2898 58.5832 26.7632 56.3854 26.2979C55.3237 26.0729 54.3086 26.055 53.3403 26.2442C52.384 26.4126 51.7138 26.8293 51.3298 27.4945C51.0898 27.9101 51.0479 28.9667 51.2041 30.6643C51.3515 32.329 51.7013 34.651 52.2537 37.6303C51.6187 37.818 50.8139 38.06 49.8392 38.3563C48.8644 38.6527 47.5062 39.1571 45.7645 39.8698C44.0141 40.5497 42.9829 41.1598 42.6709 41.7002C42.3589 42.2406 42.4813 43.1565 43.0382 44.448C43.6071 45.7187 44.3103 46.9006 45.1479 47.9939C45.9975 49.0664 46.6925 49.7586 47.2329 50.0706C47.5862 50.2746 48.3806 50.0266 49.6162 49.3266C50.8429 48.5938 52.5108 47.409 54.6197 45.7722L54.9202 47.4837L52.5802 51.5367ZM34.641 33.0735C33.861 34.4245 32.8267 34.728 31.538 33.984C30.7898 33.552 29.9569 32.7386 29.0394 31.5437C28.1339 30.3281 27.6499 29.7023 27.5876 29.6663C27.1927 29.4383 26.3311 29.7307 25.0028 30.5434C23.6744 31.3561 22.8483 32.0431 22.5243 32.6043C22.0563 33.4149 22.5336 34.508 23.9564 35.8837C25.3792 37.2594 26.8908 38.4092 28.4912 39.3332C30.0708 40.2452 31.473 40.8885 32.6978 41.2631C33.9019 41.6257 34.9548 41.8179 35.8567 41.8398C36.7498 41.8289 37.6182 41.6929 38.4618 41.4317C39.2846 41.1585 39.9647 40.8445 40.5022 40.4896C41.0516 40.114 41.579 39.6565 42.0845 39.1169C42.8204 38.3224 43.4703 37.4367 44.0343 36.4598C46.2183 32.677 46.737 29.4985 45.5905 26.9244C45.0336 25.6329 44.2364 24.4937 43.1989 23.5067C42.1614 22.5198 40.8216 21.5523 39.1797 20.6043C33.9212 17.5683 30.2359 17.8793 28.1239 21.5374C25.8799 25.4241 27.7093 29.0715 33.6121 32.4795L34.641 33.0735ZM37.3313 28.5577L36.1433 30.6153C35.5406 30.2673 35.1901 29.7463 35.092 29.0523C34.9731 28.3462 35.1117 27.6502 35.5077 26.9644C36.2277 25.7173 36.9098 25.2797 37.5541 25.6517C38.2816 26.0717 38.2073 27.0404 37.3313 28.5577ZM12.7446 30.2004C14.636 31.2924 16.3801 31.7035 17.9769 31.4338C18.6294 31.3117 19.3319 30.9829 20.0845 30.4474C20.8163 29.8999 21.4641 29.1378 22.0281 28.1609C22.5921 27.184 22.8555 26.1998 22.8182 25.2084C22.7602 24.2049 22.5126 23.3137 22.0755 22.5348C21.6384 21.7559 21.045 20.9838 20.2952 20.2183C19.1482 19.085 17.7641 18.0503 16.1429 17.1143L15.1141 16.5203C15.6061 15.6682 16.2451 15.2334 17.0311 15.2161C17.3645 15.2146 17.791 15.3638 18.3106 15.6638C18.8094 15.9518 19.3446 16.4409 19.916 17.1311C20.4667 17.8093 20.8971 18.4319 21.2071 18.9989C21.5292 19.5451 21.7733 19.8662 21.9396 19.9622C22.3137 20.1782 23.105 19.9838 24.3133 19.3789C25.5336 18.7532 26.3778 18.0351 26.8458 17.2245C27.0018 16.9543 26.8213 16.379 26.3042 15.4985C25.7872 14.618 24.9344 13.5991 23.7458 12.4418C22.5485 11.2517 21.2847 10.2726 19.9545 9.50459C18.6243 8.73659 17.4151 8.19091 16.327 7.86754C15.2301 7.51138 14.2903 7.31519 13.5076 7.27896C12.704 7.23073 11.9444 7.34642 11.2287 7.62604C10.4922 7.89365 9.90008 8.1753 9.45223 8.471C8.9836 8.75469 8.50532 9.19909 8.0174 9.8042C7.42791 10.4892 6.80916 11.3929 6.16116 12.5153L0.743163 21.8995C0.611163 22.1282 1.06435 22.6392 2.10272 23.4327C3.1323 24.1934 4.19788 24.8918 5.29947 25.5278C6.38027 26.1518 7.10495 26.5286 7.4735 26.6583C7.82127 26.7759 8.05033 26.8112 8.16068 26.764C8.27104 26.7169 8.407 26.6014 8.56857 26.4175L9.84398 24.7845L10.0934 24.9285C9.53301 27.0991 10.4168 28.8564 12.7446 30.2004ZM11.5549 22.613L13.6609 18.9653C14.2013 19.2773 14.5058 19.7579 14.5744 20.4072C14.6429 21.0565 14.5092 21.6721 14.1732 22.2541C13.3812 23.6258 12.6734 24.1317 12.0499 23.7717C11.7797 23.6157 11.6078 23.4334 11.5343 23.2247C11.4521 22.9832 11.4589 22.7793 11.5549 22.613Z" fill="white"/>
</svg>
